<?xml version="1.0" encoding="utf-8"?>
<!-- Generator: Adobe Illustrator 16.0.0, SVG Export Plug-In . SVG Version: 6.00 Build 0)  -->
<!DOCTYPE svg PUBLIC "-//W3C//DTD SVG 1.1//EN" "http://www.w3.org/Graphics/SVG/1.1/DTD/svg11.dtd">
<svg version="1.1"
	 id="svg5209" xmlns:dc="http://purl.org/dc/elements/1.1/" xmlns:cc="http://creativecommons.org/ns#" xmlns:rdf="http://www.w3.org/1999/02/22-rdf-syntax-ns#" xmlns:svg="http://www.w3.org/2000/svg" xmlns:sodipodi="http://sodipodi.sourceforge.net/DTD/sodipodi-0.dtd" xmlns:inkscape="http://www.inkscape.org/namespaces/inkscape" sodipodi:docname="openPlaylistLogoSpotifyColors.svg" inkscape:version="0.48.4 r9939" inkscape:export-ydpi="90" inkscape:export-xdpi="90" inkscape:export-filename="/home/heider/Documents/Github/openPlaylist/Graphics/openPlaylistLogoSpotifyColors.png"
	 xmlns="http://www.w3.org/2000/svg" xmlns:xlink="http://www.w3.org/1999/xlink" x="0px" y="0px" width="744.094px"
	 height="1052.363px" viewBox="0 0 744.094 1052.363" enable-background="new 0 0 744.094 1052.363" xml:space="preserve">
<sodipodi:namedview  showgrid="false" inkscape:cy="499.49717" inkscape:cx="302.80741" inkscape:zoom="0.98994949" borderopacity="1.0" bordercolor="#666666" pagecolor="#ffffff" id="base" inkscape:window-maximized="1" inkscape:window-y="27" inkscape:current-layer="layer1" inkscape:window-x="0" inkscape:pageshadow="2" inkscape:document-units="px" inkscape:pageopacity="0.0" inkscape:window-height="713" inkscape:window-width="1366">
	</sodipodi:namedview>
<g id="layer1" inkscape:label="Layer 1" inkscape:groupmode="layer">
	
		<path id="path2990-8" sodipodi:nodetypes="ssscscs" inkscape:connector-curvature="0" inkscape:export-ydpi="90" inkscape:export-xdpi="90" inkscape:export-filename="/home/heider/Documents/Github/openPlaylist/Graphics/g3048-5-1.png" fill="#80B719" d="
		M227.146,363.063c-36.096,36.097-58.934,85.979-58.934,141.06c0,55.082,22.838,104.933,58.934,141.029
		c36.097,36.098,86.22,59.186,141.066,58.971c0,0-189.277-92.572,0-200c189.278-107.427,0-200,0-200
		C313.249,304.251,263.243,326.967,227.146,363.063z"/>
	
		<path id="path5189-2" sodipodi:nodetypes="scssscs" inkscape:connector-curvature="0" inkscape:export-ydpi="90" inkscape:export-xdpi="90" inkscape:export-filename="/home/heider/Documents/Github/openPlaylist/Graphics/g3048-5-1.png" fill="#589228" d="
		M368.212,504.123c189.278-107.427,0-200,0-200c55.317,0.256,104.927,22.843,141.022,58.94
		c36.098,36.097,58.979,85.979,58.979,141.06c0,55.082-22.881,104.933-58.979,141.029c-36.096,36.098-88.105,58.865-141.022,58.971
		C368.212,704.123,178.935,611.55,368.212,504.123L368.212,504.123z"/>
	
		<g id="g3048-5-1" transform="matrix(1.4383105,0,0,1.4383127,117.00289,-218.42896)" inkscape:export-ydpi="90" inkscape:export-xdpi="90">
		
			<path id="path3015-9-6" inkscape:connector-curvature="0" fill="#FFFFFF" stroke="#FFFFFF" stroke-width="6.9526" stroke-linecap="round" stroke-linejoin="round" d="
			M170.021,432.836v139.051l69.526-69.526L170.021,432.836z"/>
		
			<path id="path3015-4-9-4" inkscape:connector-curvature="0" fill="#FFFFFF" stroke="#FFFFFF" stroke-width="6.9526" stroke-linecap="round" stroke-linejoin="round" d="
			M100.495,432.836v139.051l69.526-69.526L100.495,432.836z"/>
		
			<path id="path3046-1-2" inkscape:connector-curvature="0" fill="#FFFFFF" stroke="#FFFFFF" stroke-width="6.9526" stroke-linecap="round" stroke-linejoin="round" d="
			M239.547,432.836v139.051h9.271V432.836H239.547z"/>
	</g>
</g>
</svg>
