<?xml version="1.0" encoding="UTF-8" standalone="no"?>
<!-- Created with Inkscape (http://www.inkscape.org/) -->

<svg
   xmlns:dc="http://purl.org/dc/elements/1.1/"
   xmlns:cc="http://creativecommons.org/ns#"
   xmlns:rdf="http://www.w3.org/1999/02/22-rdf-syntax-ns#"
   xmlns:svg="http://www.w3.org/2000/svg"
   xmlns="http://www.w3.org/2000/svg"
   xmlns:sodipodi="http://sodipodi.sourceforge.net/DTD/sodipodi-0.dtd"
   xmlns:inkscape="http://www.inkscape.org/namespaces/inkscape"
   width="744.09448819"
   height="1052.3622047"
   id="svg4453"
   version="1.1"
   inkscape:version="0.48.4 r9939"
   sodipodi:docname="openPlaylistv2.svg">
  <defs
     id="defs4455" />
  <sodipodi:namedview
     id="base"
     pagecolor="#ffffff"
     bordercolor="#666666"
     borderopacity="1.0"
     inkscape:pageopacity="0.0"
     inkscape:pageshadow="2"
     inkscape:zoom="0.7"
     inkscape:cx="264.50489"
     inkscape:cy="567.07683"
     inkscape:document-units="px"
     inkscape:current-layer="layer1"
     showgrid="false"
     inkscape:window-width="1366"
     inkscape:window-height="713"
     inkscape:window-x="0"
     inkscape:window-y="27"
     inkscape:window-maximized="1" />
  <metadata
     id="metadata4458">
    <rdf:RDF>
      <cc:Work
         rdf:about="">
        <dc:format>image/svg+xml</dc:format>
        <dc:type
           rdf:resource="http://purl.org/dc/dcmitype/StillImage" />
        <dc:title></dc:title>
      </cc:Work>
    </rdf:RDF>
  </metadata>
  <g
     inkscape:label="Layer 1"
     inkscape:groupmode="layer"
     id="layer1">
    <path
       style="fill:#00ff00;fill-opacity:1;stroke:#00ff00;stroke-width:0.47935268;stroke-miterlimit:4;stroke-opacity:1;stroke-dasharray:none"
       d="m 87.131423,692.34056 c -1.577907,-0.16898 -4.954201,-0.82156 -6.779071,-1.31028 -13.018602,-3.48649 -23.948685,-12.36597 -30.011945,-24.38137 -3.493687,-6.92335 -5.045364,-14.24018 -4.784723,-22.56204 0.197143,-6.29445 1.228102,-10.94547 3.703007,-16.70556 3.561113,-8.28815 9.883195,-15.79476 17.489448,-20.76635 7.468828,-4.88177 17.279082,-7.77917 25.663459,-7.57956 0.499224,0.0119 0.741347,0.11582 0.642481,0.2758 -0.382917,0.61957 0.550695,1.77135 3.003255,3.70505 3.098344,2.44286 6.546706,5.89051 8.498076,8.49632 1.57004,2.09658 3.38079,5.56195 3.98188,7.62042 0.45219,1.54854 0.52614,6.62533 0.11838,8.12726 -0.41212,1.51804 -2.07598,4.69571 -3.32112,6.34274 l -1.1344,1.50055 -6.93444,-6.91212 c -6.135187,-6.11543 -7.000256,-6.89251 -7.5054,-6.74199 -1.176446,0.35057 -1.176231,0.34866 -1.176231,10.27448 l 0,9.33435 -9.77629,-9.77406 c -8.20505,-8.20317 -9.884949,-9.77405 -10.452361,-9.77405 -1.392031,0 -1.33135,-1.22237 -1.261951,25.42073 0.05599,21.49604 0.108844,24.56052 0.427062,24.76165 0.871473,0.55082 1.510766,0.23799 3.518564,-1.72178 l 2.006736,-1.95873 0.151036,1.6561 c 0.714893,7.83861 6.410717,15.64041 16.356578,22.40429 l 0.604341,0.411 -1.089494,-0.0261 c -0.599222,-0.0143 -1.470817,-0.0669 -1.936877,-0.1168 z"
       id="path4998"
       inkscape:connector-curvature="0"
       inkscape:export-filename="/home/heider/Documents/Github/P3/path5002.png"
       inkscape:export-xdpi="90"
       inkscape:export-ydpi="90" />
    <path
       style="fill:#00b100;fill-opacity:1;stroke:none"
       d="m 92.820998,693.53618 c -3.012029,-1.0897 -8.79336,-5.56962 -12.552034,-9.72649 -4.168307,-4.6099 -6.458762,-9.35559 -6.825241,-14.14149 l -0.151286,-1.97564 7.645823,-7.62501 7.645819,-7.62501 0,9.20538 c 0,7.93974 0.05182,9.27937 0.376894,9.74347 0.896296,1.27964 1.043582,1.16094 11.418997,-9.20279 l 9.75187,-9.74089 0,9.2028 c 0,7.9374 0.0518,9.27678 0.37689,9.74088 0.34583,0.49373 0.57227,0.53809 2.74674,0.53809 1.98839,0 2.43434,-0.0713 2.77053,-0.44275 0.36726,-0.40582 0.40069,-2.47622 0.40069,-24.81624 l 0,-24.37349 -0.50682,-0.50682 c -0.45616,-0.45616 -0.73344,-0.49851 -2.77415,-0.42369 -1.92597,0.0706 -2.32236,0.15603 -2.6329,0.56735 -0.31099,0.41191 -0.36673,1.87564 -0.37328,9.80166 l -0.008,9.31743 -2.89448,-2.88694 -2.89448,-2.88694 0.84063,-1.10409 c 1.19259,-1.56634 2.44553,-3.70798 3.17846,-5.43294 0.55016,-1.29478 0.64351,-1.90949 0.73975,-4.8713 0.0978,-3.00859 0.0513,-3.56641 -0.41312,-4.96325 -1.68858,-5.07852 -5.34919,-10.08009 -10.543283,-14.40553 -5.416817,-4.51091 -5.644028,-4.83316 -4.295347,-6.09207 0.644777,-0.60185 0.734536,-0.61636 2.842393,-0.45957 8.047397,0.59862 17.303187,4.18893 24.184277,9.38103 10.35437,7.81285 17.01478,19.08548 18.89605,31.9812 0.49032,3.36108 0.4983,9.80556 0.0161,13.01591 -1.60274,10.67086 -6.21698,19.95662 -13.53459,27.23721 -7.58417,7.5458 -16.37157,12.06346 -26.775193,13.76531 -3.986405,0.65211 -5.310003,0.69291 -6.658017,0.20522 l -1.2e-5,0 z"
       id="path5002"
       inkscape:connector-curvature="0"
       inkscape:export-xdpi="90"
       inkscape:export-ydpi="90" />
  </g>
</svg>
